<?xml version="1.0" encoding="iso-8859-1"?>
<!-- Generator: Adobe Illustrator 16.0.0, SVG Export Plug-In . SVG Version: 6.00 Build 0)  -->
<!DOCTYPE svg PUBLIC "-//W3C//DTD SVG 1.1//EN" "http://www.w3.org/Graphics/SVG/1.1/DTD/svg11.dtd">
<svg xmlns="http://www.w3.org/2000/svg" xmlns:xlink="http://www.w3.org/1999/xlink" version="1.1" id="Capa_1" x="0px" y="0px" width="512px" height="512px" viewBox="0 0 393.501 393.501" style="enable-background:new 0 0 393.501 393.501;" xml:space="preserve">
<g>
	<g>
		<path d="M371.152,0H22.348c-5.015,0-9.081,4.066-9.081,9.082v89.9c0,5.014,4.066,9.08,9.081,9.08h348.806    c5.016,0,9.08-4.066,9.08-9.08v-89.9C380.234,4.066,376.167,0,371.152,0z M250.033,73.695c-10.859,0-19.664-8.805-19.664-19.662    c0-10.861,8.805-19.666,19.664-19.666s19.664,8.805,19.664,19.666C269.697,64.891,260.892,73.695,250.033,73.695z M322.978,73.695    c-10.859,0-19.662-8.805-19.662-19.662c0-10.861,8.803-19.666,19.662-19.666s19.664,8.805,19.664,19.666    C342.642,64.891,333.837,73.695,322.978,73.695z" fill="#006DF0"/>
		<path d="M371.152,142.721H22.348c-5.015,0-9.081,4.066-9.081,9.082v89.898c0,5.016,4.066,9.08,9.081,9.08h348.806    c5.016,0,9.08-4.064,9.08-9.08v-89.898C380.234,146.787,376.167,142.721,371.152,142.721z M250.033,216.414    c-10.859,0-19.664-8.805-19.664-19.662c0-10.859,8.805-19.664,19.664-19.664s19.664,8.805,19.664,19.664    C269.697,207.609,260.892,216.414,250.033,216.414z M322.978,216.414c-10.859,0-19.662-8.805-19.662-19.662    c0-10.859,8.803-19.664,19.662-19.664s19.664,8.805,19.664,19.664C342.642,207.609,333.837,216.414,322.978,216.414z" fill="#006DF0"/>
		<path d="M371.152,285.439H22.348c-5.015,0-9.081,4.065-9.081,9.082v89.897c0,5.016,4.066,9.082,9.081,9.082h348.806    c5.016,0,9.08-4.066,9.08-9.082v-89.897C380.234,289.506,376.167,285.439,371.152,285.439z M250.033,359.135    c-10.859,0-19.664-8.805-19.664-19.664s8.805-19.664,19.664-19.664s19.664,8.805,19.664,19.664S260.892,359.135,250.033,359.135z     M322.978,359.135c-10.859,0-19.662-8.805-19.662-19.664s8.803-19.664,19.662-19.664s19.664,8.805,19.664,19.664    S333.837,359.135,322.978,359.135z" fill="#006DF0"/>
	</g>
</g>
<g>
</g>
<g>
</g>
<g>
</g>
<g>
</g>
<g>
</g>
<g>
</g>
<g>
</g>
<g>
</g>
<g>
</g>
<g>
</g>
<g>
</g>
<g>
</g>
<g>
</g>
<g>
</g>
<g>
</g>
</svg>
