<?xml version="1.0" encoding="iso-8859-1"?>
<!-- Generator: Adobe Illustrator 18.0.0, SVG Export Plug-In . SVG Version: 6.00 Build 0)  -->
<!DOCTYPE svg PUBLIC "-//W3C//DTD SVG 1.1//EN" "http://www.w3.org/Graphics/SVG/1.1/DTD/svg11.dtd">
<svg xmlns="http://www.w3.org/2000/svg" xmlns:xlink="http://www.w3.org/1999/xlink" version="1.1" id="Capa_1" x="0px" y="0px" viewBox="0 0 434.48 434.48" style="enable-background:new 0 0 434.48 434.48;" xml:space="preserve" width="512px" height="512px">
<g>
	<path d="M429.48,56.229H5c-2.761,0-5,2.239-5,5v293.99c0,2.761,2.239,5,5,5h253.953l2.18,13.812   c0.293,1.858,1.604,3.394,3.393,3.976c0.507,0.165,1.029,0.245,1.546,0.245c1.306,0,2.583-0.512,3.536-1.464l16.568-16.568h52.192   l16.568,16.568c0.953,0.953,2.23,1.464,3.536,1.464c0.517,0,1.039-0.08,1.546-0.245c1.789-0.582,3.099-2.118,3.393-3.976   l2.18-13.812h63.89c2.761,0,5-2.239,5-5V61.229C434.48,58.467,432.241,56.229,429.48,56.229z M393.117,338.596l-5.377-5.377h12.668   l17,17h-46.955l19.909-3.149c1.857-0.293,3.393-1.604,3.974-3.393C394.918,341.889,394.447,339.925,393.117,338.596z    M317.596,325.382c-1.932,1.304-3.93,2.652-5.323,2.652c-1.392,0-3.39-1.348-5.322-2.652c-1.917-1.293-4.089-2.76-6.563-3.563   c-2.561-0.832-5.244-0.937-7.61-1.03c-2.279-0.089-4.636-0.182-5.653-0.922c-1.045-0.76-1.862-2.988-2.653-5.143   c-0.812-2.214-1.733-4.724-3.305-6.884c-1.553-2.134-3.641-3.767-5.483-5.207c-1.821-1.423-3.703-2.895-4.114-4.159   c-0.371-1.143,0.261-3.384,0.872-5.551c0.651-2.31,1.39-4.927,1.39-7.675s-0.738-5.365-1.39-7.674   c-0.611-2.167-1.243-4.409-0.872-5.552c0.411-1.264,2.293-2.735,4.113-4.158c1.842-1.44,3.93-3.073,5.484-5.207   c1.571-2.16,2.492-4.67,3.305-6.884c0.791-2.155,1.608-4.383,2.653-5.144c1.017-0.74,3.374-0.833,5.653-0.922   c2.367-0.093,5.049-0.198,7.61-1.03c2.474-0.803,4.646-2.27,6.563-3.563c1.932-1.304,3.93-2.652,5.322-2.652   c1.393,0,3.39,1.348,5.322,2.652c1.917,1.293,4.089,2.759,6.563,3.562c2.561,0.832,5.244,0.937,7.61,1.03   c2.279,0.089,4.636,0.182,5.653,0.922c1.045,0.76,1.863,2.988,2.653,5.143c0.813,2.214,1.733,4.725,3.305,6.884   c1.553,2.134,3.641,3.767,5.483,5.207c1.821,1.423,3.703,2.895,4.113,4.158c0.371,1.143-0.261,3.384-0.872,5.552   c-0.651,2.31-1.39,4.927-1.39,7.675s0.738,5.366,1.39,7.675c0.611,2.167,1.243,4.409,0.873,5.551   c-0.411,1.263-2.292,2.735-4.113,4.158c-1.843,1.44-3.931,3.073-5.484,5.208c-1.571,2.159-2.492,4.669-3.305,6.884   c-0.791,2.154-1.608,4.382-2.653,5.143c-1.017,0.74-3.374,0.833-5.653,0.922c-2.367,0.093-5.049,0.198-7.611,1.03   C321.685,322.623,319.513,324.089,317.596,325.382z M361.729,290.21c-0.521-1.849-1.014-3.596-1.014-4.961   c0-1.364,0.493-3.111,1.014-4.96c0.969-3.435,2.066-7.327,0.759-11.354c-1.354-4.171-4.743-6.82-7.465-8.949   c-1.454-1.137-2.828-2.211-3.557-3.213c-0.75-1.031-1.359-2.689-2.003-4.444c-1.244-3.392-2.654-7.235-6.156-9.784   c-3.474-2.528-7.549-2.688-11.146-2.83c-1.886-0.074-3.668-0.144-4.915-0.549c-1.134-0.368-2.554-1.326-4.056-2.34   c-2.881-1.944-6.465-4.363-10.917-4.363c-4.451,0-8.035,2.419-10.916,4.363c-1.503,1.014-2.922,1.972-4.057,2.341   c-1.247,0.404-3.028,0.475-4.915,0.549c-3.596,0.141-7.672,0.301-11.146,2.829c-3.502,2.549-4.912,6.393-6.156,9.784   c-0.644,1.755-1.252,3.414-2.002,4.444c-0.73,1.002-2.104,2.077-3.558,3.213c-2.723,2.128-6.111,4.777-7.465,8.948   c-1.308,4.027-0.21,7.92,0.758,11.355c0.521,1.849,1.014,3.596,1.014,4.96c0,1.365-0.493,3.111-1.014,4.961   c-0.968,3.435-2.066,7.327-0.758,11.354c0.512,1.578,1.317,2.937,2.265,4.134l-17.522,17.522H37V93.229h360.48v229.99h-19.74   l-17.52-17.52c0.949-1.197,1.755-2.557,2.268-4.136C363.795,297.537,362.698,293.644,361.729,290.21z M230.207,343.677   c0.581,1.789,2.116,3.1,3.974,3.393l19.909,3.149H17.071l17-17h202.732l-5.377,5.377   C230.097,339.925,229.625,341.889,230.207,343.677z M400.409,83.229H34.071l-17-17h400.337L400.409,83.229z M27,90.3v235.848   l-17,17V73.3L27,90.3z M407.48,326.148V90.3l17-17v269.848L407.48,326.148z M269.48,362.772l-2.709-17.17   c-0.338-2.141-2.017-3.821-4.158-4.159l-17.175-2.717l26.359-26.358c0.519,0.465,0.966,0.919,1.285,1.357   c0.75,1.031,1.359,2.689,2.003,4.445c1.244,3.391,2.654,7.235,6.156,9.784c3.474,2.528,7.549,2.688,11.145,2.829   c1.886,0.074,3.668,0.144,4.914,0.548c0.699,0.227,1.513,0.69,2.381,1.239L269.48,362.772z M296.176,350.219l12.67-12.67   c1.083,0.298,2.221,0.486,3.427,0.486c1.206,0,2.343-0.188,3.425-0.485l12.669,12.669H296.176z M357.773,345.602l-2.709,17.17   l-30.2-30.2c0.869-0.55,1.684-1.013,2.383-1.24c1.247-0.405,3.029-0.475,4.915-0.549c3.596-0.141,7.672-0.301,11.145-2.829   c3.502-2.549,4.913-6.393,6.157-9.784c0.644-1.755,1.252-3.414,2.003-4.444c0.319-0.438,0.765-0.891,1.283-1.355l26.357,26.356   l-17.175,2.717C359.79,341.781,358.111,343.461,357.773,345.602z" fill="#006DF0"/>
	<path d="M343.037,285.249c0-16.962-13.8-30.763-30.763-30.763c-16.962,0-30.763,13.8-30.763,30.763   c0,16.963,13.8,30.763,30.763,30.763C329.236,316.012,343.037,302.212,343.037,285.249z M312.273,306.012   c-11.449,0-20.763-9.314-20.763-20.763s9.314-20.763,20.763-20.763s20.763,9.314,20.763,20.763S323.722,306.012,312.273,306.012z" fill="#006DF0"/>
	<path d="M208.24,130.292c2.761,0,5-2.239,5-5v-17.333c0-2.761-2.239-5-5-5s-5,2.239-5,5v17.333   C203.24,128.053,205.479,130.292,208.24,130.292z" fill="#006DF0"/>
	<path d="M226.24,130.292c2.761,0,5-2.239,5-5v-17.333c0-2.761-2.239-5-5-5s-5,2.239-5,5v17.333   C221.24,128.053,223.479,130.292,226.24,130.292z" fill="#006DF0"/>
	<path d="M245.573,121.625h32.576c2.761,0,5-2.239,5-5s-2.239-5-5-5h-32.576c-2.761,0-5,2.239-5,5S242.812,121.625,245.573,121.625z   " fill="#006DF0"/>
	<path d="M156.331,121.625h32.576c2.761,0,5-2.239,5-5s-2.239-5-5-5h-32.576c-2.761,0-5,2.239-5,5S153.57,121.625,156.331,121.625z" fill="#006DF0"/>
	<path d="M345.907,145.625H88.573c-2.761,0-5,2.239-5,5s2.239,5,5,5h257.333c2.761,0,5-2.239,5-5S348.668,145.625,345.907,145.625z" fill="#006DF0"/>
	<path d="M345.907,166.514H88.573c-2.761,0-5,2.239-5,5s2.239,5,5,5h257.333c2.761,0,5-2.239,5-5S348.668,166.514,345.907,166.514z" fill="#006DF0"/>
	<path d="M345.907,187.403H88.573c-2.761,0-5,2.239-5,5s2.239,5,5,5h257.333c2.761,0,5-2.239,5-5S348.668,187.403,345.907,187.403z" fill="#006DF0"/>
	<path d="M345.907,208.292H88.573c-2.761,0-5,2.239-5,5s2.239,5,5,5h257.333c2.761,0,5-2.239,5-5S348.668,208.292,345.907,208.292z" fill="#006DF0"/>
	<path d="M207.37,264.959H88.573c-2.761,0-5,2.239-5,5s2.239,5,5,5H207.37c2.761,0,5-2.239,5-5S210.131,264.959,207.37,264.959z" fill="#006DF0"/>
	<path d="M162.051,284.959H88.573c-2.761,0-5,2.239-5,5s2.239,5,5,5h73.478c2.761,0,5-2.239,5-5S164.813,284.959,162.051,284.959z" fill="#006DF0"/>
	<path d="M48.703,124.958c-2.761,0-5,2.239-5,5v40c0,2.761,2.239,5,5,5s5-2.239,5-5v-40   C53.703,127.197,51.464,124.958,48.703,124.958z" fill="#006DF0"/>
	<path d="M48.703,101.625c-2.761,0-5,2.239-5,5v7.334c0,2.761,2.239,5,5,5s5-2.239,5-5v-7.334   C53.703,103.864,51.464,101.625,48.703,101.625z" fill="#006DF0"/>
	<path d="M386.703,313.625c2.761,0,5-2.239,5-5v-52c0-2.761-2.239-5-5-5s-5,2.239-5,5v52   C381.703,311.386,383.942,313.625,386.703,313.625z" fill="#006DF0"/>
	<path d="M386.703,246.959c2.761,0,5-2.239,5-5v-9.333c0-2.761-2.239-5-5-5s-5,2.239-5,5v9.333   C381.703,244.72,383.942,246.959,386.703,246.959z" fill="#006DF0"/>
</g>
<g>
</g>
<g>
</g>
<g>
</g>
<g>
</g>
<g>
</g>
<g>
</g>
<g>
</g>
<g>
</g>
<g>
</g>
<g>
</g>
<g>
</g>
<g>
</g>
<g>
</g>
<g>
</g>
<g>
</g>
</svg>
